<svg width="500" height="500" viewBox="0 0 500 500" fill="none" xmlns="http://www.w3.org/2000/svg">
<rect width="500" height="500" rx="150" fill="#22A559"/>
<path d="M189.881 271.356C187.977 274.521 184.946 276.848 181.397 277.871C177.848 278.893 174.043 278.535 170.747 276.869C167.451 275.202 164.907 272.35 163.627 268.886C162.346 265.422 162.424 261.601 163.844 258.191L176.862 264.628L163.697 258.045L163.844 257.899L163.99 257.606C164.61 256.448 165.293 255.325 166.038 254.242C167.501 252.194 169.402 249.707 171.889 246.928C177.301 241.662 186.224 235.372 198.804 235.372C211.384 235.372 220.307 241.662 225.572 247.074C228.729 250.196 231.436 253.74 233.618 257.606V257.899H233.764V258.045L220.745 264.628L233.91 258.045C235.656 261.517 235.951 265.541 234.73 269.23C233.51 272.92 230.873 275.974 227.401 277.719C223.929 279.465 219.905 279.76 216.216 278.539C212.526 277.319 209.472 274.682 207.727 271.21C206.954 269.882 206.02 268.653 204.947 267.553C202.9 265.652 200.852 264.628 198.804 264.628C196.756 264.628 194.708 265.652 192.66 267.553C191.587 268.653 190.654 269.882 189.881 271.21V271.356ZM272.674 277.793C276.128 279.528 280.129 279.824 283.802 278.618C287.475 277.412 290.521 274.802 292.275 271.356C292.275 271.064 292.567 270.771 292.86 270.479C293.299 269.747 294.03 268.577 295.054 267.553C297.102 265.652 299.15 264.628 301.197 264.628C303.245 264.628 305.293 265.652 307.341 267.553C308.414 268.653 309.348 269.882 310.12 271.21C312.025 274.375 315.056 276.702 318.605 277.724C322.154 278.747 325.958 278.389 329.254 276.722C332.55 275.056 335.094 272.204 336.374 268.74C337.655 265.275 337.577 261.455 336.158 258.045L323.139 264.628L336.304 258.045L336.158 257.899L336.011 257.606C335.396 256.445 334.712 255.322 333.963 254.242C332.256 251.619 330.297 249.169 328.112 246.928C322.7 241.662 313.777 235.372 301.197 235.372C288.618 235.372 279.695 241.662 274.429 247.074C271.273 250.196 268.565 253.74 266.384 257.606V257.899H266.237V258.045L279.256 264.628L266.091 258.045C264.367 261.518 264.091 265.533 265.326 269.208C266.56 272.883 269.203 275.918 272.674 277.646V277.793Z" fill="white"/>
<path fill-rule="evenodd" clip-rule="evenodd" d="M250 381.649C330.745 381.649 396.277 354.442 396.277 293.883C396.277 212.115 355.319 146.583 333.963 123.179C332.714 121.624 331.161 120.341 329.399 119.409C327.637 118.476 325.702 117.914 323.715 117.756C321.727 117.598 319.728 117.848 317.841 118.491C315.954 119.134 314.218 120.156 312.74 121.494C311.262 122.832 310.073 124.459 309.246 126.273C308.42 128.087 307.973 130.052 307.933 132.045C307.893 134.038 308.261 136.019 309.014 137.865C309.768 139.711 310.891 141.383 312.314 142.78C326.595 159.73 338.188 178.773 346.689 199.242C319.889 175.795 285.606 162.673 250 162.234C212.992 162.234 179.056 177.155 153.457 199.242C161.913 178.782 173.457 159.74 187.686 142.78C189.109 141.383 190.232 139.711 190.986 137.865C191.739 136.019 192.107 134.038 192.067 132.045C192.027 130.052 191.58 128.087 190.754 126.273C189.927 124.459 188.738 122.832 187.26 121.494C185.782 120.156 184.046 119.134 182.159 118.491C180.272 117.848 178.273 117.598 176.285 117.756C174.298 117.914 172.363 118.476 170.601 119.409C168.839 120.341 167.286 121.624 166.037 123.179C126.368 171.287 104.376 231.533 103.723 293.883C103.723 354.442 169.255 381.649 250 381.649ZM250 206.117C306.609 206.117 352.394 235.373 352.394 267.554C352.394 299.734 306.609 323.139 250 323.139C193.391 323.139 147.606 299.734 147.606 267.554C147.606 235.373 193.391 206.117 250 206.117Z" fill="white"/>
</svg>

